---
config:
  look: neo
  theme: default
---
stateDiagram
  direction TB
  [*] --> INIT
  INIT --> DOWN
  DOWN --> RISING
  RISING --> DOWN
  RISING --> UP
  UP --> FALLING
  FALLING --> DOWN
  DOWN --> DOWN
  RISING --> RISING
  UP --> UP
  DOWN --> DISABLED
  RISING --> DISABLED
  FALLING --> DISABLED
  UP --> DISABLED
  DISABLED --> DOWN
